HIERARCHY
ROOT pelvis
{
	OFFSET 0.003123 -0.351407 0.012037
	CHANNELS 6 Xposition Yposition Zposition Zrotation Yrotation Xrotation 
	JOINT left_hip
	{
		OFFSET 0.058189 -0.092763 -0.026001
		CHANNELS 3 Zrotation Yrotation Xrotation
		JOINT left_knee
		{
			OFFSET 0.054695 -0.378753 -0.009396
			CHANNELS 3 Zrotation Yrotation Xrotation
			JOINT left_ankle
			{
				OFFSET -0.043453 -0.403059 -0.031876
				CHANNELS 3 Zrotation Yrotation Xrotation
				JOINT left_foot
				{
					OFFSET 0.047257 -0.057997 0.118216
					CHANNELS 3 Zrotation Yrotation Xrotation
					End Site
					{
						OFFSET 0.000000 0.000000 0.000000
					}
				}
			}
		}
	}
	JOINT right_hip
	{
		OFFSET -0.063267 -0.103908 -0.021250
		CHANNELS 3 Zrotation Yrotation Xrotation
		JOINT right_knee
		{
			OFFSET -0.044210 -0.362380 -0.016824
			CHANNELS 3 Zrotation Yrotation Xrotation
			JOINT right_ankle
			{
				OFFSET 0.015417 -0.410728 -0.020192
				CHANNELS 3 Zrotation Yrotation Xrotation
				JOINT right_foot
				{
					OFFSET -0.038812 -0.058328 0.119049
					CHANNELS 3 Zrotation Yrotation Xrotation
					End Site
					{
						OFFSET 0.000000 0.000000 0.000000
					}
				}
			}
		}
	}
	JOINT spine_1
	{
		OFFSET -0.002763 0.109891 -0.027618
		CHANNELS 3 Zrotation Yrotation Xrotation
		JOINT spine_2
		{
			OFFSET 0.009448 0.131853 -0.005940
			CHANNELS 3 Zrotation Yrotation Xrotation
			JOINT spine_3
			{
				OFFSET -0.011330 0.052235 0.028447
				CHANNELS 3 Zrotation Yrotation Xrotation
				JOINT neck
				{
					OFFSET -0.012164 0.165167 -0.031615
					CHANNELS 3 Zrotation Yrotation Xrotation
					JOINT head
					{
						OFFSET 0.024783 0.160452 0.020737
						CHANNELS 3 Zrotation Yrotation Xrotation
						End Site
						{
							OFFSET 0.000000 0.000000 0.000000
						}
					}
				}
				JOINT left_collar
				{
					OFFSET 0.046364 0.084944 -0.007220
					CHANNELS 3 Zrotation Yrotation Xrotation
					JOINT left_shoulder
					{
						OFFSET 0.119239 0.057728 -0.015461
						CHANNELS 3 Zrotation Yrotation Xrotation
						JOINT left_elbow
						{
							OFFSET 0.254123 -0.072151 -0.042459
							CHANNELS 3 Zrotation Yrotation Xrotation
							JOINT left_wrist
							{
								OFFSET 0.251987 0.023221 -0.002472
								CHANNELS 3 Zrotation Yrotation Xrotation
								JOINT left_index_1
								{
									OFFSET 0.101902 -0.008688 0.019351
									CHANNELS 3 Zrotation Yrotation Xrotation
									JOINT left_index_2
									{
										OFFSET 0.030149 -0.011154 0.001151
										CHANNELS 3 Zrotation Yrotation Xrotation
										JOINT left_index_3
										{
											OFFSET 0.006504 -0.021577 -0.002433
											CHANNELS 3 Zrotation Yrotation Xrotation
											End Site
											{
												OFFSET 0.000000 0.000000 0.000000
											}
										}
									}
								}
								JOINT left_middle_1
								{
									OFFSET 0.109398 -0.006328 -0.003981
									CHANNELS 3 Zrotation Yrotation Xrotation
									JOINT left_middle_2
									{
										OFFSET 0.026472 -0.015218 -0.004641
										CHANNELS 3 Zrotation Yrotation Xrotation
										JOINT left_middle_3
										{
											OFFSET 0.005022 -0.023347 -0.001911
											CHANNELS 3 Zrotation Yrotation Xrotation
											End Site
											{
												OFFSET 0.000000 0.000000 0.000000
											}
										}
									}
								}
								JOINT left_pinky_1
								{
									OFFSET 0.084047 -0.014539 -0.043750
									CHANNELS 3 Zrotation Yrotation Xrotation
									JOINT left_pinky_2
									{
										OFFSET 0.012124 -0.014448 -0.005375
										CHANNELS 3 Zrotation Yrotation Xrotation
										JOINT left_pinky_3
										{
											OFFSET 0.003798 -0.018853 0.000167
											CHANNELS 3 Zrotation Yrotation Xrotation
											End Site
											{
												OFFSET 0.000000 0.000000 0.000000
											}
										}
									}
								}
								JOINT left_ring_1
								{
									OFFSET 0.097444 -0.009268 -0.027345
									CHANNELS 3 Zrotation Yrotation Xrotation
									JOINT left_ring_2
									{
										OFFSET 0.023561 -0.016057 -0.001895
										CHANNELS 3 Zrotation Yrotation Xrotation
										JOINT left_ring_3
										{
											OFFSET 0.004257 -0.023548 0.000814
											CHANNELS 3 Zrotation Yrotation Xrotation
											End Site
											{
												OFFSET 0.000000 0.000000 0.000000
											}
										}
									}
								}
								JOINT left_thumb_1
								{
									OFFSET 0.040636 -0.017977 0.025611
									CHANNELS 3 Zrotation Yrotation Xrotation
									JOINT left_thumb_2
									{
										OFFSET 0.021637 -0.017639 0.011623
										CHANNELS 3 Zrotation Yrotation Xrotation
										JOINT left_thumb_3
										{
											OFFSET 0.024002 -0.008356 0.006548
											CHANNELS 3 Zrotation Yrotation Xrotation
											End Site
											{
												OFFSET 0.000000 0.000000 0.000000
											}
										}
									}
								}
							}
						}
					}
				}
				JOINT right_collar
				{
					OFFSET -0.047695 0.084339 -0.013400
					CHANNELS 3 Zrotation Yrotation Xrotation
					JOINT right_shoulder
					{
						OFFSET -0.102578 0.053524 -0.012669
						CHANNELS 3 Zrotation Yrotation Xrotation
						JOINT right_elbow
						{
							OFFSET -0.271150 -0.036492 -0.026467
							CHANNELS 3 Zrotation Yrotation Xrotation
							JOINT right_wrist
							{
								OFFSET -0.249267 -0.004533 -0.015325
								CHANNELS 3 Zrotation Yrotation Xrotation
								JOINT right_index_1
								{
									OFFSET -0.099881 -0.011783 0.019600
									CHANNELS 3 Zrotation Yrotation Xrotation
									JOINT right_index_2
									{
										OFFSET -0.030148 -0.011154 0.001151
										CHANNELS 3 Zrotation Yrotation Xrotation
										JOINT right_index_3
										{
											OFFSET -0.006505 -0.021577 -0.002432
											CHANNELS 3 Zrotation Yrotation Xrotation
											End Site
											{
												OFFSET 0.000000 0.000000 0.000000
											}
										}
									}
								}
								JOINT right_middle_1
								{
									OFFSET -0.107376 -0.009422 -0.003734
									CHANNELS 3 Zrotation Yrotation Xrotation
									JOINT right_middle_2
									{
										OFFSET -0.026472 -0.015218 -0.004641
										CHANNELS 3 Zrotation Yrotation Xrotation
										JOINT right_middle_3
										{
											OFFSET -0.005022 -0.023347 -0.001911
											CHANNELS 3 Zrotation Yrotation Xrotation
											End Site
											{
												OFFSET 0.000000 0.000000 0.000000
											}
										}
									}
								}
								JOINT right_pinky_1
								{
									OFFSET -0.082027 -0.017634 -0.043503
									CHANNELS 3 Zrotation Yrotation Xrotation
									JOINT right_pinky_2
									{
										OFFSET -0.012123 -0.014448 -0.005374
										CHANNELS 3 Zrotation Yrotation Xrotation
										JOINT right_pinky_3
										{
											OFFSET -0.003798 -0.018852 0.000167
											CHANNELS 3 Zrotation Yrotation Xrotation
											End Site
											{
												OFFSET 0.000000 0.000000 0.000000
											}
										}
									}
								}
								JOINT right_ring_1
								{
									OFFSET -0.095423 -0.012362 -0.027099
									CHANNELS 3 Zrotation Yrotation Xrotation
									JOINT right_ring_2
									{
										OFFSET -0.023561 -0.016057 -0.001895
										CHANNELS 3 Zrotation Yrotation Xrotation
										JOINT right_ring_3
										{
											OFFSET -0.004257 -0.023548 0.000816
											CHANNELS 3 Zrotation Yrotation Xrotation
											End Site
											{
												OFFSET 0.000000 0.000000 0.000000
											}
										}
									}
								}
								JOINT right_thumb_1
								{
									OFFSET -0.038613 -0.021074 0.025861
									CHANNELS 3 Zrotation Yrotation Xrotation
									JOINT right_thumb_2
									{
										OFFSET -0.021636 -0.017639 0.011623
										CHANNELS 3 Zrotation Yrotation Xrotation
										JOINT right_thumb_3
										{
											OFFSET -0.024004 -0.008353 0.006547
											CHANNELS 3 Zrotation Yrotation Xrotation
											End Site
											{
												OFFSET 0.000000 0.000000 0.000000
											}
										}
									}
								}
							}
						}
					}
				}
			}
		}
	}
}
MOTION
Frames: 6
Frame Time: 0.050000
0.000027 0.990742 0.000587 -2.854849 0.003767 5.923085 3.572231 -0.507169 -3.487311 -1.823779 0.602842 -5.031199 -2.580067 4.122553 12.257010 0.000000 0.000000 0.000000 2.985343 0.623721 -5.285496 1.459765 -0.065062 0.106744 6.310216 5.180153 9.696524 0.000000 0.000000 0.000000 3.381968 0.252016 -1.388972 -8.506045 -3.614623 -29.042224 9.767007 0.662382 39.670124 4.888179 3.608160 -24.939790 0.000000 0.000000 0.000000 7.613820 4.708156 -1.279761 -43.404626 24.110903 -10.515320 -117.229409 -17.770584 35.611602 3.179287 -0.233778 -4.735474 2.139168 -2.032320 -0.824388 22.844765 -2.241550 -2.385781 0.000000 0.000000 0.000000 5.505446 -3.450247 -1.221270 17.060191 -0.833351 3.266233 0.000000 0.000000 0.000000 17.484305 -8.291124 -5.399253 3.648114 2.284515 11.703642 0.000000 0.000000 0.000000 7.233323 -2.146637 -1.155554 15.261529 0.868873 1.876505 0.000000 0.000000 0.000000 9.606478 4.349362 -1.838722 -13.906348 -8.271534 1.614436 0.000000 0.000000 0.000000 -8.154639 -8.686182 -3.373807 41.421589 -22.832892 -10.135952 116.482174 30.543049 39.372047 0.303320 -2.070461 0.728672 -0.547088 3.379484 -1.302536 -17.805575 2.358666 -2.790948 0.000000 0.000000 0.000000 -3.718519 4.460006 -2.112956 -14.503054 1.107203 1.126538 0.000000 0.000000 0.000000 -13.841817 6.439472 -2.647014 -2.968690 -1.113956 6.328193 0.000000 0.000000 0.000000 -4.940662 1.915909 -1.009319 -13.906532 -0.323042 -1.962622 0.000000 0.000000 0.000000 -4.693769 -1.088574 -1.615616 9.586013 5.266046 1.212281 0.000000 0.000000 0.000000 
0.000674 0.990742 0.003227 -2.811051 -0.608966 5.736623 3.313541 -0.534915 -3.795883 -1.547458 0.528185 -4.297839 -2.222799 5.053971 12.970566 0.000000 0.000000 0.000000 2.639046 0.611924 -5.189405 1.878049 -0.087120 -0.109569 6.701179 4.974123 10.824317 0.000000 0.000000 0.000000 3.459121 0.225357 -1.068777 -8.563476 -3.452115 -28.401787 9.805777 0.441203 38.852814 4.902893 3.657100 -25.017389 0.000000 0.000000 0.000000 7.384157 5.560232 -1.712585 -43.275668 24.640881 -10.325671 -116.931180 -17.497756 35.077686 3.414446 0.682835 -4.606387 1.907929 -1.541791 -0.632964 22.874922 -2.243871 -2.439203 0.000000 0.000000 0.000000 5.273849 -3.152370 -1.063732 18.704020 -1.145924 -0.001856 0.000000 0.000000 0.000000 17.888012 -7.934243 -4.590757 4.716349 1.595917 8.406757 0.000000 0.000000 0.000000 7.143099 -1.966766 -1.016935 15.203807 0.898614 2.370185 0.000000 0.000000 0.000000 9.363241 5.318203 -0.821591 -13.724586 -9.161713 1.339782 0.000000 0.000000 0.000000 -8.453631 -7.753300 -2.854081 42.635561 -22.158157 -10.508442 115.847985 30.687204 38.891686 0.347521 -2.055718 0.833194 -0.674515 3.228993 -1.255072 -18.951318 2.244000 -1.211943 0.000000 0.000000 0.000000 -4.347802 4.739279 -2.209011 -13.546103 0.683109 4.565543 0.000000 0.000000 0.000000 -14.940059 7.216217 -3.407260 -4.045764 -1.249395 7.484762 0.000000 0.000000 0.000000 -5.735425 2.168107 -1.150993 -12.713515 -0.494060 1.345736 0.000000 0.000000 0.000000 -4.857346 -3.420188 0.394169 8.607631 9.480160 -0.200989 0.000000 0.000000 0.000000 
0.001322 0.989775 0.005867 -2.601633 -1.196134 6.178739 3.164422 -0.653706 -4.867835 -1.308211 0.438993 -3.450376 -2.423791 5.189877 13.841700 0.000000 0.000000 0.000000 2.297895 0.769295 -6.267027 2.235959 -0.088101 0.522127 6.444444 4.068068 11.385676 0.000000 0.000000 0.000000 3.408818 0.251548 -1.339721 -8.535474 -3.494417 -28.459594 9.800860 0.792068 38.948250 5.030297 3.651968 -24.956825 0.000000 0.000000 0.000000 7.440665 5.613011 -1.737615 -43.600982 24.123832 -10.382013 -115.872398 -17.412759 34.282005 3.331132 -0.228225 -4.267051 2.020681 -1.001929 -0.446663 22.251968 -2.254408 -2.615498 0.000000 0.000000 0.000000 5.571025 -4.629120 -1.958558 17.638009 -0.902652 3.677149 0.000000 0.000000 0.000000 17.562461 -7.615724 -4.045305 4.462891 1.502147 7.906001 0.000000 0.000000 0.000000 7.087558 -1.407119 -0.571344 14.781769 0.835397 1.934255 0.000000 0.000000 0.000000 9.485109 4.230680 -1.841684 -14.190925 -6.258698 2.182360 0.000000 0.000000 0.000000 -8.608138 -7.219126 -2.590506 44.095556 -21.245262 -10.778399 114.218613 30.382014 37.444149 0.162908 -0.494382 0.711580 -0.820977 1.417471 -0.571949 -18.495293 2.308230 -1.859003 0.000000 0.000000 0.000000 -4.027894 2.150348 -0.618842 -15.417365 1.241869 0.650174 0.000000 0.000000 0.000000 -13.890813 5.230069 -0.696104 -3.154011 -1.015078 5.885689 0.000000 0.000000 0.000000 -5.359540 -0.075514 0.505622 -14.035275 -0.291943 -2.512378 0.000000 0.000000 0.000000 -4.795483 -3.240128 0.265043 8.986468 8.290855 0.242515 0.000000 0.000000 0.000000 
0.001970 0.989775 0.008507 -2.534673 -0.688798 5.712230 3.271796 -0.652571 -4.844713 -1.492245 0.404914 -3.017960 -2.765352 5.244188 14.670458 0.000000 0.000000 0.000000 2.262898 0.724948 -5.942934 2.198677 -0.085069 0.743889 6.244114 3.426086 11.923382 0.000000 0.000000 0.000000 3.220535 0.164063 -0.573771 -8.432755 -3.732982 -29.365967 9.801823 0.550565 39.712953 5.018361 3.777002 -25.766180 0.000000 0.000000 0.000000 7.779275 5.447386 -1.615435 -44.294750 23.641623 -10.673059 -114.849674 -18.333172 35.305978 3.359399 1.024106 -4.243658 1.991011 -1.777107 -0.723115 21.566498 -2.224196 -3.118835 0.000000 0.000000 0.000000 5.422427 -5.500479 -2.532697 17.254230 -0.857447 3.468324 0.000000 0.000000 0.000000 16.806032 -7.851243 -4.825928 5.224601 1.445564 7.796978 0.000000 0.000000 0.000000 6.800006 -2.158245 -1.180054 15.052067 0.853358 1.883528 0.000000 0.000000 0.000000 9.109810 3.922420 -1.925596 -13.678339 -6.578338 1.934159 0.000000 0.000000 0.000000 -8.763092 -6.860548 -2.440666 45.477273 -20.405613 -10.972571 113.438798 31.219881 38.455260 0.027556 -2.106975 0.329773 -1.216313 3.574400 -1.413681 -17.661999 2.123625 -1.525908 0.000000 0.000000 0.000000 -4.340038 4.227860 -1.882874 -12.398022 0.586264 3.894140 0.000000 0.000000 0.000000 -14.541436 6.549111 -2.615171 -3.424515 -1.131697 6.442930 0.000000 0.000000 0.000000 -5.585790 1.814108 -0.901439 -11.833426 -0.460917 0.804850 0.000000 0.000000 0.000000 -4.247808 -2.266400 -0.353480 7.259659 7.716459 -0.208852 0.000000 0.000000 0.000000 
0.000262 0.989775 0.009827 -2.606403 -0.562851 5.714985 3.612232 -0.714347 -5.434600 -1.735776 0.335812 -2.135653 -2.666259 5.580737 14.954918 0.000000 0.000000 0.000000 2.262605 0.749082 -6.107307 2.667156 -0.105357 1.044513 5.985775 2.938651 12.032009 0.000000 0.000000 0.000000 3.320193 0.212326 -1.000620 -8.512898 -3.479461 -28.472647 9.787042 0.448505 38.862421 4.746406 3.845100 -26.099817 0.000000 0.000000 0.000000 8.046027 5.246470 -1.486648 -44.597003 22.946548 -10.677518 -112.989691 -19.314077 35.743397 3.328038 -0.200302 -4.520785 1.997491 -0.930327 -0.418656 22.859562 -2.321989 -3.289806 0.000000 0.000000 0.000000 5.336197 -2.711030 -0.775483 17.452491 -0.931657 2.378629 0.000000 0.000000 0.000000 17.504928 -7.930806 -4.708807 3.602265 2.161271 11.069211 0.000000 0.000000 0.000000 7.022094 -1.670825 -0.789054 15.630870 0.836912 1.239080 0.000000 0.000000 0.000000 9.264684 5.476785 -0.609424 -13.256719 -9.127882 1.197824 0.000000 0.000000 0.000000 -9.112175 -7.045386 -2.459729 46.334718 -19.955445 -11.079423 111.916254 31.274770 37.532646 -0.290178 -1.308646 0.063327 -0.250911 2.181790 -0.819001 -19.880127 2.337856 -1.703619 0.000000 0.000000 0.000000 -4.351499 4.201146 -1.859922 -14.135036 0.720037 4.550397 0.000000 0.000000 0.000000 -15.904689 7.158269 -3.043333 -3.007383 -1.263692 7.052985 0.000000 0.000000 0.000000 -6.015383 1.826838 -0.887764 -12.994250 -0.550914 1.596980 0.000000 0.000000 0.000000 -5.012412 -3.014089 -0.111481 9.828946 7.561684 0.665336 0.000000 0.000000 0.000000 
-0.001387 0.988808 0.011147 -2.533047 -1.239743 5.541198 3.558895 -0.679253 -5.176407 -1.472014 0.301357 -1.911706 -2.609721 5.445536 14.746600 0.000000 0.000000 0.000000 2.229648 0.768262 -6.245170 2.741804 -0.097720 1.588169 6.078360 3.154907 11.807615 0.000000 0.000000 0.000000 3.345717 0.186218 -0.712296 -8.563287 -3.661148 -29.147326 9.925654 0.814578 39.297288 4.844390 3.813690 -25.926788 0.000000 0.000000 0.000000 8.710038 5.345698 -1.458274 -45.560761 22.228127 -10.938681 -110.940010 -20.823313 37.076130 3.407285 0.872111 -4.483698 2.324044 -3.354024 -1.312405 22.047906 -2.015607 -0.445180 0.000000 0.000000 0.000000 5.555816 -5.223341 -2.342613 18.304334 -0.993422 2.405668 0.000000 0.000000 0.000000 17.534881 -8.240477 -5.302056 4.091727 2.093795 10.876294 0.000000 0.000000 0.000000 6.822706 -2.134173 -1.166710 16.179672 0.846066 0.819660 0.000000 0.000000 0.000000 9.908126 4.216075 -2.143803 -14.546877 -6.755598 2.158621 0.000000 0.000000 0.000000 -9.527751 -6.302628 -2.083012 47.274797 -18.404113 -10.988313 109.739543 32.173746 37.483171 -0.397707 -2.018448 0.189061 -1.185119 2.865340 -1.133522 -19.438380 2.361370 -2.285031 0.000000 0.000000 0.000000 -5.031932 5.193184 -2.405981 -14.067890 0.759039 3.959823 0.000000 0.000000 0.000000 -14.128148 5.755688 -1.569591 -4.267797 -0.976980 5.714536 0.000000 0.000000 0.000000 -6.387989 2.791062 -1.605220 -13.523049 -0.545731 1.242508 0.000000 0.000000 0.000000 -5.263834 -3.016994 -0.249319 9.282483 7.994720 0.371765 0.000000 0.000000 0.000000 
